<svg width="51" height="51" viewBox="0 0 51 51" fill="none" xmlns="http://www.w3.org/2000/svg">
<rect x="1.25" y="1.5" width="48" height="48" rx="5" fill="url(#paint0_linear_469_1001)"/>
<g clip-path="url(#clip0_469_1001)">
<path d="M28.5833 30.8333C28.5833 31.0101 28.513 31.1796 28.388 31.3047C28.263 31.4297 28.0934 31.4999 27.9166 31.4999H18.5833C18.4366 31.4999 18.2966 31.6333 18.1766 31.7199L15.9166 33.4999V22.8333C15.9166 22.6564 15.9868 22.4869 16.1118 22.3618C16.2369 22.2368 16.4064 22.1666 16.5833 22.1666H19.1566V20.8333H16.5833C16.0528 20.8333 15.5441 21.044 15.169 21.419C14.794 21.7941 14.5833 22.3028 14.5833 22.8333V34.8333C14.5842 34.9571 14.6197 35.0782 14.6856 35.183C14.7516 35.2877 14.8454 35.3721 14.9566 35.4266C15.0637 35.4753 15.1818 35.4948 15.2989 35.4831C15.416 35.4714 15.5279 35.4289 15.6233 35.3599L19.0566 32.8333H28.0166C28.2693 32.8407 28.5208 32.7962 28.7556 32.7026C28.9903 32.6089 29.2034 32.468 29.3815 32.2886C29.5596 32.1092 29.699 31.8952 29.7911 31.6598C29.8831 31.4244 29.9258 31.1725 29.9166 30.9199V30.1666H28.5833V30.8333Z" fill="white"/>
<path d="M33.9166 16.1667H22.5833C22.0528 16.1667 21.5441 16.3775 21.169 16.7525C20.794 17.1276 20.5833 17.6363 20.5833 18.1667V26.1667C20.5833 26.6972 20.794 27.2059 21.169 27.581C21.5441 27.956 22.0528 28.1667 22.5833 28.1667H31.6166L34.8033 30.6401C34.898 30.7101 35.0096 30.7538 35.1267 30.7667C35.2438 30.7796 35.3622 30.7612 35.4699 30.7134C35.5834 30.6594 35.6792 30.5744 35.7465 30.4682C35.8137 30.3621 35.8496 30.2391 35.8499 30.1134V18.1667C35.8502 17.6477 35.6487 17.1488 35.2879 16.7756C34.9271 16.4024 34.4354 16.1841 33.9166 16.1667ZM34.5833 28.7934L32.2499 26.9734C32.1336 26.8831 31.9906 26.8339 31.8433 26.8334H22.5833C22.4064 26.8334 22.2369 26.7632 22.1118 26.6382C21.9868 26.5131 21.9166 26.3436 21.9166 26.1667V18.1667C21.9166 17.9899 21.9868 17.8204 22.1118 17.6953C22.2369 17.5703 22.4064 17.5001 22.5833 17.5001H33.9166C34.0948 17.5163 34.2609 17.597 34.3837 17.7272C34.5065 17.8573 34.5775 18.0279 34.5833 18.2067V28.7934Z" fill="white"/>
</g>
<rect x="1.25" y="1.5" width="48" height="48" rx="5" stroke="white" stroke-width="2"/>
<defs>
<linearGradient id="paint0_linear_469_1001" x1="41.3298" y1="3.12172" x2="19.6317" y2="47.7696" gradientUnits="userSpaceOnUse">
<stop stop-color="#FD6F26"/>
<stop offset="1" stop-color="#F51D12"/>
</linearGradient>
<clipPath id="clip0_469_1001">
<rect width="24" height="24" fill="white" transform="translate(13.25 13.5)"/>
</clipPath>
</defs>
</svg>
