<svg width="51" height="51" viewBox="0 0 51 51" fill="none" xmlns="http://www.w3.org/2000/svg">
<rect x="1.25" y="1.5" width="48" height="48" rx="5" fill="url(#paint0_linear_469_687)"/>
<path fill-rule="evenodd" clip-rule="evenodd" d="M22.2 21.75H28.3C28.964 21.75 29.537 21.75 29.996 21.812C30.488 21.878 30.959 22.027 31.341 22.409C31.723 22.791 31.872 23.263 31.938 23.754C32 24.213 32 24.786 32 25.451V29.549C32 30.214 32 30.787 31.938 31.246C31.872 31.738 31.723 32.209 31.341 32.591C30.959 32.973 30.487 33.122 29.996 33.188C29.537 33.25 28.964 33.25 28.3 33.25H22.2C21.536 33.25 20.963 33.25 20.504 33.188C20.013 33.122 19.541 32.973 19.159 32.591C18.777 32.209 18.628 31.737 18.562 31.246C18.5 30.787 18.5 30.214 18.5 29.549V25.451C18.5 24.786 18.5 24.213 18.562 23.754C18.628 23.263 18.777 22.791 19.159 22.409C19.541 22.027 20.013 21.878 20.504 21.812C20.963 21.75 21.536 21.75 22.201 21.75H22.2ZM20.705 23.298C20.38 23.342 20.278 23.413 20.221 23.47C20.164 23.527 20.093 23.629 20.049 23.954C20.003 24.301 20.001 24.772 20.001 25.5V29.5C20.001 30.228 20.003 30.7 20.049 31.046C20.093 31.371 20.164 31.473 20.221 31.53C20.278 31.587 20.38 31.658 20.705 31.702C21.052 31.748 21.523 31.75 22.251 31.75H28.251C28.979 31.75 29.451 31.748 29.797 31.702C30.122 31.658 30.224 31.587 30.281 31.53C30.338 31.473 30.409 31.371 30.453 31.046C30.499 30.699 30.501 30.228 30.501 29.5V25.5C30.501 24.772 30.499 24.3 30.453 23.954C30.409 23.629 30.338 23.527 30.281 23.47C30.224 23.413 30.122 23.342 29.797 23.298C29.45 23.252 28.979 23.25 28.251 23.25H22.25C21.522 23.25 21.051 23.252 20.705 23.298Z" fill="white"/>
<path d="M20.25 18.75C20.0511 18.75 19.8603 18.829 19.7197 18.9697C19.579 19.1103 19.5 19.3011 19.5 19.5C19.5 19.6989 19.579 19.8897 19.7197 20.0303C19.8603 20.171 20.0511 20.25 20.25 20.25H25.25C25.4489 20.25 25.6397 20.171 25.7803 20.0303C25.921 19.8897 26 19.6989 26 19.5C26 19.3011 25.921 19.1103 25.7803 18.9697C25.6397 18.829 25.4489 18.75 25.25 18.75H20.25Z" fill="white"/>
<path fill-rule="evenodd" clip-rule="evenodd" d="M24.194 14.75H26.306C28.144 14.75 29.6 14.75 30.739 14.903C31.911 15.061 32.86 15.393 33.609 16.141C34.357 16.89 34.689 17.839 34.847 19.011C35 20.151 35 21.606 35 23.444V27.556C35 29.394 35 30.85 34.847 31.989C34.689 33.161 34.357 34.11 33.609 34.859C32.86 35.607 31.911 35.939 30.739 36.097C29.599 36.25 28.144 36.25 26.306 36.25H24.194C22.356 36.25 20.9 36.25 19.761 36.097C18.589 35.939 17.64 35.607 16.891 34.859C16.143 34.11 15.811 33.161 15.653 31.989C15.5 30.849 15.5 29.394 15.5 27.556V23.444C15.5 21.606 15.5 20.15 15.653 19.011C15.811 17.839 16.143 16.89 16.891 16.141C17.64 15.393 18.589 15.061 19.761 14.903C20.901 14.75 22.356 14.75 24.194 14.75ZM19.96 16.39C18.954 16.525 18.374 16.779 17.95 17.202C17.528 17.625 17.274 18.205 17.139 19.211C17.001 20.239 16.999 21.593 16.999 23.5V27.5C16.999 29.407 17.001 30.762 17.139 31.79C17.274 32.795 17.528 33.375 17.951 33.798C18.374 34.221 18.954 34.475 19.96 34.61C20.988 34.748 22.342 34.75 24.249 34.75H26.249C28.156 34.75 29.511 34.748 30.539 34.61C31.544 34.475 32.124 34.221 32.547 33.798C32.97 33.375 33.224 32.795 33.359 31.789C33.497 30.762 33.499 29.407 33.499 27.5V23.5C33.499 21.593 33.497 20.239 33.359 19.21C33.224 18.205 32.97 17.625 32.547 17.202C32.124 16.779 31.544 16.525 30.538 16.39C29.511 16.252 28.156 16.25 26.249 16.25H24.249C22.342 16.25 20.989 16.252 19.96 16.39Z" fill="white"/>
<rect x="1.25" y="1.5" width="48" height="48" rx="5" stroke="white" stroke-width="2"/>
<defs>
<linearGradient id="paint0_linear_469_687" x1="41.3298" y1="3.12172" x2="19.6317" y2="47.7696" gradientUnits="userSpaceOnUse">
<stop stop-color="#FD6F26"/>
<stop offset="1" stop-color="#F51D12"/>
</linearGradient>
</defs>
</svg>
