<svg width="20" height="20" viewBox="0 0 20 20" fill="none" xmlns="http://www.w3.org/2000/svg">
<mask id="mask0_117_94" style="mask-type:luminance" maskUnits="userSpaceOnUse" x="0" y="0" width="20" height="20">
<path d="M19.3182 8.18182H10V12.0455H15.3636C14.8636 14.5 12.7727 15.9091 10 15.9091C6.72728 15.9091 4.09091 13.2727 4.09091 10C4.09091 6.72728 6.72728 4.09091 10 4.09091C11.4091 4.09091 12.6818 4.59091 13.6818 5.40909L16.5909 2.5C14.8182 0.954546 12.5455 0 10 0C4.45455 0 0 4.45455 0 10C0 15.5455 4.45455 20 10 20C15 20 19.5455 16.3636 19.5455 10C19.5455 9.40909 19.4546 8.77273 19.3182 8.18182Z" fill="white"/>
</mask>
<g mask="url(#mask0_117_94)">
<path d="M-0.909119 15.9091V4.09091L6.81816 10L-0.909119 15.9091Z" fill="#FBBC05"/>
</g>
<mask id="mask1_117_94" style="mask-type:luminance" maskUnits="userSpaceOnUse" x="0" y="0" width="20" height="20">
<path d="M19.3182 8.18182H10V12.0455H15.3636C14.8636 14.5 12.7727 15.9091 10 15.9091C6.72728 15.9091 4.09091 13.2727 4.09091 10C4.09091 6.72728 6.72728 4.09091 10 4.09091C11.4091 4.09091 12.6818 4.59091 13.6818 5.40909L16.5909 2.5C14.8182 0.954546 12.5455 0 10 0C4.45455 0 0 4.45455 0 10C0 15.5455 4.45455 20 10 20C15 20 19.5455 16.3636 19.5455 10C19.5455 9.40909 19.4546 8.77273 19.3182 8.18182Z" fill="white"/>
</mask>
<g mask="url(#mask1_117_94)">
<path d="M-0.909119 4.09091L6.81816 10L9.99998 7.22728L20.9091 5.45455V-0.909088H-0.909119V4.09091Z" fill="#EA4335"/>
</g>
<mask id="mask2_117_94" style="mask-type:luminance" maskUnits="userSpaceOnUse" x="0" y="0" width="20" height="20">
<path d="M19.3182 8.18182H10V12.0455H15.3636C14.8636 14.5 12.7727 15.9091 10 15.9091C6.72728 15.9091 4.09091 13.2727 4.09091 10C4.09091 6.72728 6.72728 4.09091 10 4.09091C11.4091 4.09091 12.6818 4.59091 13.6818 5.40909L16.5909 2.5C14.8182 0.954546 12.5455 0 10 0C4.45455 0 0 4.45455 0 10C0 15.5455 4.45455 20 10 20C15 20 19.5455 16.3636 19.5455 10C19.5455 9.40909 19.4546 8.77273 19.3182 8.18182Z" fill="white"/>
</mask>
<g mask="url(#mask2_117_94)">
<path d="M-0.909119 15.9091L12.7273 5.45455L16.3182 5.9091L20.9091 -0.909088V20.9091H-0.909119V15.9091Z" fill="#34A853"/>
</g>
<mask id="mask3_117_94" style="mask-type:luminance" maskUnits="userSpaceOnUse" x="0" y="0" width="20" height="20">
<path d="M19.3182 8.18182H10V12.0455H15.3636C14.8636 14.5 12.7727 15.9091 10 15.9091C6.72728 15.9091 4.09091 13.2727 4.09091 10C4.09091 6.72728 6.72728 4.09091 10 4.09091C11.4091 4.09091 12.6818 4.59091 13.6818 5.40909L16.5909 2.5C14.8182 0.954546 12.5455 0 10 0C4.45455 0 0 4.45455 0 10C0 15.5455 4.45455 20 10 20C15 20 19.5455 16.3636 19.5455 10C19.5455 9.40909 19.4546 8.77273 19.3182 8.18182Z" fill="white"/>
</mask>
<g mask="url(#mask3_117_94)">
<path d="M20.9091 20.9091L6.81818 10L5 8.63637L20.9091 4.09091V20.9091Z" fill="#4285F4"/>
</g>
</svg>
