<svg width="16" height="16" viewBox="0 0 16 16" fill="none" xmlns="http://www.w3.org/2000/svg">
<path d="M7.74079 0C7.19893 0 6.77319 0.425743 6.77319 0.967598C6.77319 1.50945 7.19893 1.9352 7.74079 1.9352C8.28264 1.9352 8.70839 1.50945 8.70839 0.967598C8.70839 0.425743 8.28264 0 7.74079 0ZM2.9028 1.9352C2.36094 1.9352 1.9352 2.36094 1.9352 2.9028C1.9352 3.44465 2.36094 3.87039 2.9028 3.87039C3.44465 3.87039 3.87039 3.44465 3.87039 2.9028C3.87039 2.36094 3.44465 1.9352 2.9028 1.9352ZM12.5788 1.9352C12.0369 1.9352 11.6112 2.36094 11.6112 2.9028C11.6112 3.44465 12.0369 3.87039 12.5788 3.87039C13.1206 3.87039 13.5464 3.44465 13.5464 2.9028C13.5464 2.36094 13.1206 1.9352 12.5788 1.9352ZM7.74079 3.87039C5.61207 3.87039 3.87039 5.61207 3.87039 7.74079C3.87039 9.8695 5.61207 11.6112 7.74079 11.6112C9.8695 11.6112 11.6112 9.8695 11.6112 7.74079C11.6112 5.61207 9.8695 3.87039 7.74079 3.87039ZM0.967598 6.77319C0.425743 6.77319 0 7.19893 0 7.74079C0 8.28264 0.425743 8.70839 0.967598 8.70839C1.50945 8.70839 1.9352 8.28264 1.9352 7.74079C1.9352 7.19893 1.50945 6.77319 0.967598 6.77319ZM14.514 6.77319C13.9721 6.77319 13.5464 7.19893 13.5464 7.74079C13.5464 8.28264 13.9721 8.70839 14.514 8.70839C15.0558 8.70839 15.4816 8.28264 15.4816 7.74079C15.4816 7.19893 15.0558 6.77319 14.514 6.77319ZM2.9028 11.6112C2.36094 11.6112 1.9352 12.0369 1.9352 12.5788C1.9352 13.1206 2.36094 13.5464 2.9028 13.5464C3.44465 13.5464 3.87039 13.1206 3.87039 12.5788C3.87039 12.0369 3.44465 11.6112 2.9028 11.6112ZM12.5788 11.6112C12.0369 11.6112 11.6112 12.0369 11.6112 12.5788C11.6112 13.1206 12.0369 13.5464 12.5788 13.5464C13.1206 13.5464 13.5464 13.1206 13.5464 12.5788C13.5464 12.0369 13.1206 11.6112 12.5788 11.6112ZM7.74079 13.5464C7.19893 13.5464 6.77319 13.9721 6.77319 14.514C6.77319 15.0558 7.19893 15.4816 7.74079 15.4816C8.28264 15.4816 8.70839 15.0558 8.70839 14.514C8.70839 13.9721 8.28264 13.5464 7.74079 13.5464Z" fill="#959595"/>
</svg>
