<svg width="13" height="14" viewBox="0 0 13 14" fill="none" xmlns="http://www.w3.org/2000/svg">
<path d="M2.55702 0.00349455C2.32864 0.0400351 2.12413 0.165802 1.98848 0.353128C1.85283 0.540454 1.79715 0.773994 1.83369 1.00237C1.87023 1.23075 1.996 1.43526 2.18333 1.57091C2.37065 1.70656 2.60419 1.76224 2.83257 1.7257H3.69367V5.1701H1.97147C1.02426 5.1701 0.249268 5.94509 0.249268 6.8923H5.41588V12.0589L6.17365 13.7811L7.13808 12.0589V6.8923H12.3047C12.3047 5.94509 11.5297 5.1701 10.5825 5.1701H8.86028V1.7257H9.72138C9.94976 1.7257 10.1688 1.63497 10.3303 1.47349C10.4918 1.312 10.5825 1.09297 10.5825 0.864596C10.5825 0.636218 10.4918 0.417193 10.3303 0.255705C10.1688 0.0942175 9.94976 0.00349455 9.72138 0.00349455H2.83257C2.78101 -0.00116485 2.72913 -0.00116485 2.67757 0.00349455C2.64316 0.00142604 2.60865 0.00142604 2.57424 0.00349455L2.55702 0.00349455Z" fill="#D9D9D9"/>
</svg>
