<svg width="9" height="15" viewBox="0 0 9 15" fill="none" xmlns="http://www.w3.org/2000/svg">
<path d="M3.61078 0V1.87266H2.26347C1.04192 1.87266 0.0179641 2.94007 0.0179641 4.21348V5.14981C0.0179641 6.42322 0.808383 7.47191 1.97605 7.79026L6.57485 9.02622C6.82635 9.10112 7.18563 9.56929 7.18563 9.85019V10.7865C7.18563 11.0487 6.98802 11.2547 6.73653 11.2547H2.24551C2.02994 11.2547 1.86826 11.1798 1.79641 11.1423V9.38202H0V11.2547C0 11.8914 0.359281 12.4345 0.790419 12.7154C1.20359 13.015 1.72455 13.1273 2.24551 13.1273H3.59281V15H5.38922V13.1273H6.73653C7.97605 13.1273 8.98204 12.0787 8.98204 10.7865V9.85019C8.98204 8.57678 8.19162 7.52809 7.02395 7.20974L2.42515 5.97378C2.17365 5.89888 1.81437 5.43071 1.81437 5.14981V4.21348C1.81437 3.95131 2.01198 3.74532 2.26347 3.74532H6.75449C6.9521 3.74532 7.13174 3.82022 7.20359 3.85768V5.61798H9V3.74532C9 3.10861 8.64072 2.56554 8.20958 2.28464C7.79641 1.98502 7.27545 1.87266 6.75449 1.87266H5.40719V0L3.61078 0Z" fill="#FFC738"/>
</svg>
