<svg width="8" height="8" viewBox="0 0 8 8" fill="none" xmlns="http://www.w3.org/2000/svg">
<path d="M3.79152 0.579242C2.01512 0.579242 0.570068 2.02429 0.570068 3.80069C0.570068 5.57709 2.01512 7.02214 3.79152 7.02214C4.33456 7.02214 4.8684 6.89328 5.31941 6.64477C5.35553 6.68825 5.39558 6.7283 5.43906 6.76442L6.35947 7.68484C6.44446 7.78047 6.5481 7.85772 6.66402 7.91185C6.77995 7.96598 6.90571 7.99584 7.0336 7.99961C7.16148 8.00337 7.28878 7.98096 7.40769 7.93374C7.5266 7.88653 7.6346 7.81551 7.72507 7.72504C7.81554 7.63457 7.88656 7.52657 7.93377 7.40766C7.98099 7.28875 8.0034 7.16145 7.99964 7.03357C7.99587 6.90568 7.96601 6.77992 7.91188 6.66399C7.85775 6.54807 7.7805 6.44443 7.68487 6.35944L6.76446 5.43903C6.71962 5.39418 6.67027 5.35408 6.61719 5.31938C6.8657 4.86837 7.02217 4.34374 7.02217 3.79149C7.02217 2.01509 5.57712 0.570038 3.80072 0.570038L3.79152 0.579242ZM3.79152 1.49966C5.07089 1.49966 6.09255 2.52132 6.09255 3.80069C6.09255 4.40816 5.87165 4.96962 5.48508 5.3838C5.47588 5.39301 5.46667 5.40221 5.45747 5.41142C5.41399 5.44754 5.37394 5.4876 5.33781 5.53107C4.93283 5.89924 4.38058 6.11093 3.78231 6.11093C2.50294 6.11093 1.48128 5.08927 1.48128 3.8099C1.48128 2.53052 2.50294 1.50886 3.78231 1.50886L3.79152 1.49966Z" fill="#D9D9D9"/>
</svg>
