<svg width="40" height="29" viewBox="0 0 40 29" fill="none" xmlns="http://www.w3.org/2000/svg">
<path d="M17.0455 9H9.02404C8.22192 9 7.3529 10.3333 7.01867 11C4.23393 16.5544 0 24 0 26C0 28 1.00257 29 3.00799 29H25.0669C26.6712 29 27.7407 27.6667 28.0749 27C30.7487 21.6667 34.2915 12.6 35.0937 11C35.0937 9.4 33.7568 9 33.0883 9H25.0669C24.2648 9 23.3958 10.3333 23.0615 11L16.0428 25H13.0348C12.2326 25 12.0321 24.3333 12.0321 24C13.7032 21 17.4465 14.2 19.0508 11C19.0508 9.4 17.7139 9 17.0455 9Z" fill="white"/>
<path d="M27.6605 7H35.6819C36.484 7 37.353 6.33333 37.6873 6L39.6926 2C40.4948 0.4 39.6926 0 37.6873 0H29.6658C27.6605 0 26.6578 3 25.6551 5C24.6524 7 25.6551 7 27.6605 7Z" fill="white"/>
</svg>
