<svg width="84" height="29" viewBox="0 0 84 29" fill="none" xmlns="http://www.w3.org/2000/svg">
<path d="M21.0457 21.2169C21.0457 23.373 21.3455 24.451 21.9451 24.451C22.3049 24.451 22.7486 24.2259 23.2762 23.7757C23.8039 23.3256 24.3315 22.8399 24.8592 22.3186C25.3868 21.7737 25.8665 21.2761 26.2982 20.826C26.7539 20.3758 27.0657 20.1507 27.2336 20.1507C27.5693 20.1507 27.7372 20.5535 27.7372 21.3591C27.7372 23.0176 26.8858 24.6287 25.1829 26.1924C23.5041 27.7561 21.7053 28.538 19.7866 28.538C18.5874 28.5617 17.772 28.0523 17.3403 27.0098C17.0045 26.1806 16.8366 24.8538 16.8366 23.0294C15.2297 26.7018 12.8433 28.538 9.67745 28.538C7.54289 28.538 5.84004 28.0168 4.5689 26.9743C3.32175 25.9081 2.69817 24.2377 2.69817 21.9632C2.69817 21.4183 2.99797 19.9849 3.59756 17.663C4.22114 15.3174 4.71281 13.3983 5.07256 11.9056C5.43232 10.3893 5.6122 9.19281 5.6122 8.31618C5.6122 6.39706 5.12053 5.4375 4.1372 5.4375C3.80142 5.4375 3.48964 5.53227 3.20183 5.72181C2.93801 5.91136 2.6622 6.11274 2.37439 6.32598C2.11057 6.53922 1.83476 6.7406 1.54695 6.93015C1.25915 7.11969 0.923374 7.21446 0.539634 7.21446C0.179878 7.21446 0 6.89461 0 6.2549C0 4.9518 0.611586 3.88562 1.83476 3.05637C3.00996 2.20343 4.41301 1.77696 6.04391 1.77696C7.6748 1.77696 8.89797 2.44036 9.71342 3.76716C10.337 4.73856 10.6488 5.84028 10.6488 7.0723C10.6488 8.28064 10.5169 9.46528 10.2531 10.6262C9.98923 11.7635 9.70143 12.9363 9.38964 14.1446C9.10183 15.3529 8.82602 16.585 8.5622 17.8407C8.29838 19.0727 8.16647 20.0915 8.16647 20.8971C8.16647 21.6789 8.20244 22.2002 8.27439 22.4608C8.61017 23.5033 9.42562 24.0245 10.7207 24.0245C12.3996 24.0245 13.8626 22.982 15.1098 20.8971C16.1651 19.1438 16.9085 17.0114 17.3403 14.5L17.5561 12.9007L17.4122 5.47304C17.4122 4.38317 17.8919 3.48284 18.8512 2.77206C19.8106 2.06127 20.8179 1.71773 21.8732 1.74142C22.3049 1.74142 22.5807 2.06127 22.7006 2.70098C22.8205 3.31699 22.8805 4.00409 22.8805 4.76226C22.8805 5.52043 22.8325 6.2549 22.7366 6.96569C22.6407 7.65278 22.5207 8.45833 22.3768 9.38235C22.2569 10.2827 22.113 11.2541 21.9451 12.2966C21.3216 16.585 21.0218 19.5584 21.0457 21.2169Z" fill="#F24333"/>
<path d="M30.7378 10.6973C31.6012 10.6973 32.4167 11.5147 33.1841 13.1495C34.3114 11.9886 35.7024 11.4081 37.3573 11.4081C39.0362 11.4081 40.2953 11.7753 41.1348 12.5098C41.9742 13.2206 42.3939 14.2394 42.3939 15.5662C42.3939 16.8693 42.214 18.1961 41.8543 19.5466C41.5185 20.8971 41.2667 21.8685 41.0988 22.4608C40.9549 23.0294 40.8829 23.5033 40.8829 23.8824C40.8829 24.2614 41.0148 24.451 41.2787 24.451C41.6384 24.451 42.0821 24.2259 42.6098 23.7757C43.1374 23.3256 43.665 22.8399 44.1927 22.3186C44.7203 21.7737 45.2 21.2761 45.6317 20.826C46.0874 20.3758 46.3992 20.1507 46.5671 20.1507C46.9029 20.1507 47.0707 20.5535 47.0707 21.3591C47.0707 23.0176 46.2433 24.6168 44.5884 26.1569C41.8063 27.768 40.0315 28.5735 39.264 28.5735C39.1921 28.5735 39.1441 28.5617 39.1201 28.538C37.2014 28.538 36.2421 27.0217 36.2421 23.989C36.2421 22.6859 36.362 21.4894 36.6018 20.3995C36.8657 19.3096 37.0575 18.5159 37.1774 18.0184C37.2974 17.5208 37.3573 17.0114 37.3573 16.4902C37.3573 15.6373 36.8537 15.2108 35.8463 15.2108C34.863 15.2108 33.9156 15.9453 33.0043 17.4142C32.1169 18.8595 31.5173 20.364 31.2055 21.9277V22.1765C31.2055 22.982 31.3254 23.8113 31.5652 24.6642C31.8291 25.5172 31.961 26.1095 31.961 26.4412C31.961 27.2467 30.9417 28.0404 28.903 28.8223C28.5913 28.9408 28.3154 29 28.0756 29C27.476 29 27.0563 28.692 26.8165 28.076C26.6006 27.46 26.4927 26.5004 26.4927 25.1973C26.4927 21.8329 26.6246 19.4044 26.8884 17.9118C27.2482 15.6846 28.0636 13.6115 29.3348 11.6924C29.7665 11.029 30.2341 10.6973 30.7378 10.6973Z" fill="#F24333"/>
<path d="M49.593 28.538C47.1946 28.538 45.9954 26.3227 45.9954 21.8922C45.9954 19.4755 46.2952 17.2839 46.8948 15.3174C47.8302 12.2847 48.8854 10.7684 50.0606 10.7684C50.7562 10.7684 51.3078 11.2304 51.7155 12.1544C52.0513 12.8652 52.2072 13.5641 52.1832 14.2512C52.1832 15.1989 51.8954 16.8693 51.3198 19.2623C50.7682 21.3472 50.4924 22.6385 50.4924 23.136C50.4924 23.6336 50.6123 23.9771 50.8521 24.1667C51.1159 24.3562 51.4157 24.451 51.7515 24.451C52.1113 24.451 52.555 24.2259 53.0826 23.7757C53.6102 23.3256 54.1379 22.8399 54.6655 22.3186C55.1932 21.7737 55.6728 21.2761 56.1046 20.826C56.5602 20.3758 56.872 20.1507 57.0399 20.1507C57.3757 20.1507 57.5436 20.5535 57.5436 21.3591C57.5436 23.0176 56.6922 24.6405 54.9893 26.2279C53.3104 27.7917 51.5117 28.5617 49.593 28.538ZM51.068 7.88971C50.4204 6.94199 50.0966 5.9232 50.0966 4.83333C50.0966 3.74346 50.2645 2.84314 50.6003 2.13235C50.96 1.39788 51.2958 0.864787 51.6076 0.533088C51.9194 0.177696 52.2791 0 52.6869 0C53.3584 0 53.97 0.497549 54.5216 1.49265C55.0733 2.46405 55.3491 3.28145 55.3491 3.94485C55.3491 5.17688 54.9054 6.14828 54.018 6.85907C53.1546 7.54616 52.1712 7.88971 51.068 7.88971Z" fill="#F24333"/>
<path d="M57.3283 26.5123C57.0645 25.8726 56.8726 25.1381 56.7527 24.3088C56.6328 23.4559 56.5728 22.2712 56.5728 20.7549C56.5728 19.2386 56.8606 17.1891 57.4362 14.6066H55.8173C55.5295 14.6066 55.3856 14.4882 55.3856 14.2512C55.3856 13.6826 55.4336 13.2206 55.5295 12.8652C55.6494 12.4861 55.9132 12.0596 56.321 11.5858H57.1844C57.5202 11.5858 57.8799 11.5739 58.2637 11.5502C59.4149 7.90155 60.5901 6.07721 61.7893 6.07721C62.7486 6.1009 63.4202 6.70507 63.8039 7.88971C63.8998 8.22141 64.0078 8.5768 64.1277 8.95588L62.6527 11.5147C64.3315 11.5621 65.3868 11.5858 65.8185 11.5858C66.2742 11.5858 66.5141 11.6332 66.538 11.7279C66.586 11.799 66.61 11.9175 66.61 12.0833C66.61 12.5098 66.5021 13.0429 66.2862 13.6826C66.0943 14.3223 65.8665 14.6303 65.6027 14.6066L62.0051 14.4289C61.5015 17.3194 61.2496 19.7124 61.2496 21.6078C61.2496 23.5033 61.5254 24.451 62.0771 24.451C62.5328 24.451 63.3602 24.0837 64.5594 23.3493C65.7586 22.5911 66.622 21.8685 67.1496 21.1814C67.6773 20.4943 68.109 20.1507 68.4448 20.1507C68.7805 20.1507 68.9484 20.5535 68.9484 21.3591C68.9484 22.1646 68.6606 22.9939 68.085 23.8468C67.5094 24.6761 66.7779 25.4461 65.8905 26.1569C65.0271 26.844 64.0557 27.4126 62.9765 27.8627C61.9212 28.3129 60.9978 28.538 60.2063 28.538C59.4149 28.538 58.8033 28.3603 58.3716 28.0049C57.9639 27.6258 57.6161 27.1283 57.3283 26.5123Z" fill="#F24333"/>
<path d="M75.5457 24.5576C77.4165 24.5576 79.2272 23.8231 80.978 22.3542C81.6256 21.8092 82.1533 21.3117 82.561 20.8615C82.9687 20.3877 83.2805 20.1507 83.4963 20.1507C83.8321 20.1507 84 20.4824 84 21.1458C84 21.8092 83.8201 22.5556 83.4604 23.3848C83.1006 24.1904 82.501 24.9841 81.6616 25.7659C79.599 27.6851 76.7689 28.6446 73.1713 28.6446C70.3173 28.6446 68.3746 27.6258 67.3433 25.5882C66.9835 24.8775 66.8036 23.8587 66.8036 22.5319C66.8036 21.2051 67.0675 19.8309 67.5951 18.4093C68.1228 16.9641 68.8183 15.7202 69.6817 14.6777C70.5691 13.6352 71.5884 12.8297 72.7396 12.261C73.8908 11.6687 75.114 11.3725 76.4091 11.3725C77.7282 11.3725 78.7356 11.6924 79.4311 12.3321C80.1506 12.9718 80.5104 13.8011 80.5104 14.8199C80.5104 15.8386 80.2465 16.6797 79.7189 17.3431C79.2152 17.9828 78.5557 18.5278 77.7402 18.9779C76.9248 19.4044 76.0134 19.7953 75.0061 20.1507C74.0228 20.4824 73.0514 20.8615 72.0921 21.288V22.1765C72.1161 23.0294 72.4758 23.6336 73.1713 23.989C73.8669 24.3444 74.6583 24.5339 75.5457 24.5576ZM74.9341 14.5355C73.687 14.5355 72.8236 15.969 72.3439 18.8358C72.8476 18.5041 73.3152 18.2079 73.7469 17.9473C74.2026 17.6867 74.5984 17.4379 74.9341 17.201C75.6537 16.6797 76.0254 16.0874 76.0494 15.424C76.0494 14.8317 75.6776 14.5355 74.9341 14.5355Z" fill="#F24333"/>
</svg>
